# Blender v2.91.2 OBJ File: 'Key.blend'
# www.blender.org
mtllib Key.mtl
o Key_Cube
v 3.682516 -0.281603 -0.348343
v 3.682516 -1.000000 -0.348343
v 3.682516 -0.281603 0.018023
v 3.682516 -1.000000 0.018023
v -0.919080 -0.368801 -0.685231
v -0.919080 -0.854668 -0.685231
v -0.919080 -0.368801 0.667411
v -0.919080 -0.854668 0.667411
v -0.919080 -0.854668 -0.008910
v 0.000000 -1.000000 -0.348343
v 3.682516 -0.640801 -0.348343
v -0.919080 -0.611735 0.667411
v 3.682516 -0.640801 0.154869
v -0.919080 -0.611735 -0.685231
v -0.242759 -0.368801 0.003280
v 3.682516 -0.281603 0.000000
v 0.000000 -1.000000 0.018023
v -0.919080 -0.368801 -0.008910
v -0.242759 -0.368801 -0.244501
v 3.682516 -1.000000 0.000000
v 0.000000 -0.640801 -0.348343
v 3.682516 -0.640801 0.000000
v 0.000000 -1.000000 0.000000
v -0.919080 -0.611735 -0.008910
v 0.000000 -0.640801 0.018023
v -0.242759 -0.368801 -0.008910
v 3.682516 -0.820401 -0.348343
v 3.682516 -0.820401 0.154869
v 1.841258 -1.000000 0.018023
v 1.841258 -0.281603 -0.348343
v 1.841258 -1.000000 -0.348343
v 3.682516 -0.461202 -0.348343
v 3.682516 -0.461202 0.154869
v 1.841258 -0.281603 0.018023
v 1.841258 -0.640801 -0.348343
v 0.000000 -0.820401 -0.348343
v 0.000000 -0.461202 -0.348343
v 1.841258 -0.640801 -0.024006
v 0.000000 -0.820401 0.018023
v 0.000000 -0.461202 0.018023
v 1.841258 -0.461202 -0.024006
v 1.841258 -0.820401 -0.024006
v 1.841258 -0.820401 -0.348343
v 1.841258 -0.461202 -0.348343
v 3.682516 -0.910200 -0.348343
v 3.682516 -0.910200 0.154869
v 2.761887 -1.000000 0.018023
v 2.761887 -0.281603 -0.348343
v 0.920629 -1.000000 -0.348343
v 3.682516 -0.551002 -0.348343
v 3.682516 -0.551002 0.154869
v 0.920629 -0.281603 0.018023
v 2.761887 -0.640801 -0.348343
v 0.000000 -0.910200 -0.348343
v 0.000000 -0.551002 -0.348343
v 0.920629 -0.640801 0.154869
v 0.000000 -0.910200 0.018023
v 0.000000 -0.551002 0.018023
v 3.682516 -0.730601 -0.348343
v 3.682516 -0.730601 0.154869
v 0.920629 -1.000000 0.018023
v 0.920629 -0.281603 -0.348343
v 2.761887 -1.000000 -0.348343
v 3.682516 -0.371402 -0.348343
v 3.682516 -0.371402 0.293303
v 2.761887 -0.281603 0.018023
v 0.920629 -0.640801 -0.348343
v 0.000000 -0.730601 -0.348343
v 0.000000 -0.371402 -0.348343
v 2.761887 -0.640801 -0.024006
v 0.000000 -0.730601 0.018023
v 0.000000 -0.371402 0.018023
v 0.920629 -0.461202 0.154869
v 2.761887 -0.461202 -0.024006
v 1.841258 -0.551002 -0.024006
v 1.841258 -0.371402 -0.024006
v 0.920629 -0.820401 0.154869
v 2.761887 -0.820401 -0.024006
v 1.841258 -0.910200 -0.024006
v 1.841258 -0.730601 -0.024006
v 2.761887 -0.820401 -0.348343
v 0.920629 -0.820401 -0.348343
v 1.841258 -0.910200 -0.348343
v 1.841258 -0.730601 -0.348343
v 2.761887 -0.461202 -0.348343
v 0.920629 -0.461202 -0.348343
v 1.841258 -0.551002 -0.348343
v 1.841258 -0.371402 -0.348343
v 0.920629 -0.371402 -0.348343
v 0.920629 -0.551002 -0.348343
v 2.761887 -0.551002 -0.348343
v 0.920629 -0.730601 -0.348343
v 0.920629 -0.910200 -0.348343
v 2.761887 -0.910200 -0.348343
v 2.761887 -0.730601 -0.024006
v 2.761887 -0.910200 -0.024006
v 0.920629 -0.910200 0.154869
v 2.761887 -0.371402 -0.024006
v 2.761887 -0.551002 -0.024006
v 0.920629 -0.551002 0.154869
v 0.920629 -0.371402 0.293303
v 0.920629 -0.730601 0.154869
v 2.761887 -0.730601 -0.348343
v 2.761887 -0.371402 -0.348343
vt 0.750000 0.625000
vt 0.875000 0.625000
vt 0.875000 0.750000
vt 0.750000 0.750000
vt 0.500000 0.875000
vt 0.531250 0.875000
vt 0.562500 0.875000
vt 0.593750 0.875000
vt 0.625000 0.875000
vt 0.625000 1.000000
vt 0.500000 1.000000
vt 0.500000 0.125000
vt 0.625000 0.125000
vt 0.625000 0.250000
vt 0.500000 0.250000
vt 0.250000 0.625000
vt 0.375000 0.625000
vt 0.375000 0.750000
vt 0.343750 0.750000
vt 0.312500 0.750000
vt 0.281250 0.750000
vt 0.250000 0.750000
vt 0.500000 0.625000
vt 0.625000 0.625000
vt 0.625000 0.750000
vt 0.593750 0.750000
vt 0.562500 0.750000
vt 0.531250 0.750000
vt 0.500000 0.750000
vt 0.593750 0.468750
vt 0.625000 0.468750
vt 0.625000 0.500000
vt 0.593750 0.500000
vt 0.468750 0.468750
vt 0.500000 0.468750
vt 0.500000 0.500000
vt 0.468750 0.500000
vt 0.375000 0.250000
vt 0.500000 0.375000
vt 0.468750 0.375000
vt 0.437500 0.375000
vt 0.406250 0.375000
vt 0.375000 0.375000
vt 0.625000 0.375000
vt 0.593750 0.375000
vt 0.562500 0.375000
vt 0.531250 0.375000
vt 0.468750 0.750000
vt 0.437500 0.750000
vt 0.406250 0.750000
vt 0.375000 0.500000
vt 0.406250 0.500000
vt 0.437500 0.500000
vt 0.531250 0.500000
vt 0.562500 0.500000
vt 0.125000 0.625000
vt 0.125000 0.750000
vt 0.125000 0.500000
vt 0.250000 0.500000
vt 0.281250 0.500000
vt 0.312500 0.500000
vt 0.343750 0.500000
vt 0.375000 0.125000
vt 0.375000 0.000000
vt 0.500000 0.000000
vt 0.625000 0.000000
vt 0.375000 0.875000
vt 0.406250 0.875000
vt 0.437500 0.875000
vt 0.468750 0.875000
vt 0.375000 1.000000
vt 0.468750 0.843750
vt 0.500000 0.843750
vt 0.593750 0.843750
vt 0.625000 0.843750
vt 0.718750 0.750000
vt 0.687500 0.750000
vt 0.656250 0.750000
vt 0.656250 0.500000
vt 0.687500 0.500000
vt 0.718750 0.500000
vt 0.750000 0.500000
vt 0.875000 0.500000
vt 0.531250 0.843750
vt 0.562500 0.843750
vt 0.531250 0.781250
vt 0.562500 0.781250
vt 0.562500 0.812500
vt 0.531250 0.812500
vt 0.593750 0.781250
vt 0.625000 0.781250
vt 0.625000 0.812500
vt 0.593750 0.812500
vt 0.406250 0.843750
vt 0.437500 0.843750
vt 0.406250 0.781250
vt 0.437500 0.781250
vt 0.437500 0.812500
vt 0.406250 0.812500
vt 0.468750 0.781250
vt 0.500000 0.781250
vt 0.500000 0.812500
vt 0.468750 0.812500
vt 0.406250 0.468750
vt 0.437500 0.468750
vt 0.406250 0.406250
vt 0.437500 0.406250
vt 0.437500 0.437500
vt 0.406250 0.437500
vt 0.468750 0.406250
vt 0.500000 0.406250
vt 0.500000 0.437500
vt 0.468750 0.437500
vt 0.531250 0.468750
vt 0.562500 0.468750
vt 0.531250 0.406250
vt 0.562500 0.406250
vt 0.562500 0.437500
vt 0.531250 0.437500
vt 0.593750 0.406250
vt 0.625000 0.406250
vt 0.625000 0.437500
vt 0.593750 0.437500
vt 0.375000 0.406250
vt 0.375000 0.437500
vt 0.375000 0.468750
vt 0.375000 0.781250
vt 0.375000 0.812500
vt 0.375000 0.843750
vn 0.0000 1.0000 0.0000
vn 0.5539 0.2835 0.7828
vn -1.0000 0.0000 0.0000
vn 0.0000 -1.0000 0.0000
vn 1.0000 0.0000 0.0000
vn 0.0000 0.0000 -1.0000
vn 0.3442 0.0000 -0.9389
vn 0.3255 0.3320 -0.8854
vn -0.1562 -0.9877 0.0000
vn 0.5771 0.0000 0.8167
vn -0.1470 0.0000 0.9891
vn -0.0902 0.9246 0.3701
vn -0.0091 0.5517 -0.8340
vn -0.0197 0.9955 0.0930
vn 0.0000 0.0000 1.0000
vn 0.0000 -0.4239 0.9057
vn -0.0649 0.6653 -0.7437
vn -0.1907 0.0000 0.9816
vn 0.0000 0.4239 0.9057
vn -0.0856 -0.4652 0.8811
vn -0.0590 -0.6050 0.7940
vn 0.0856 -0.4652 0.8811
vn 0.1907 0.0000 0.9816
vn -0.2087 -0.5970 0.7746
vn -0.1046 0.7880 0.6067
vn -0.1746 -0.6011 0.7799
vn 0.2087 -0.5970 0.7746
vn 0.1046 0.7880 0.6067
usemtl Material
s off
f 26/1/1 18/2/1 7/3/1 15/4/1
f 25/5/2 58/6/2 40/7/2 72/8/2 15/9/2 7/10/2 12/11/2
f 24/12/3 18/13/3 5/14/3 14/15/3
f 23/16/4 20/17/4 4/18/4 47/19/4 29/20/4 61/21/4 17/22/4
f 22/23/5 16/24/5 3/25/5 65/26/5 33/27/5 51/28/5 13/29/5
f 104/30/6 48/31/6 1/32/6 64/33/6
f 103/34/6 53/35/6 11/36/6 59/37/6
f 6/38/7 14/15/7 21/39/7 68/40/7 36/41/7 54/42/7 10/43/7
f 14/15/8 5/14/8 19/44/8 69/45/8 37/46/8 55/47/8 21/39/8
f 20/17/5 22/23/5 13/29/5 60/48/5 28/49/5 46/50/5 4/18/5
f 2/51/5 45/52/5 27/53/5 59/37/5 11/36/5 22/23/5 20/17/5
f 11/36/5 50/54/5 32/55/5 64/33/5 1/32/5 16/24/5 22/23/5
f 9/56/9 23/16/9 17/22/9 8/57/9
f 6/58/9 10/59/9 23/16/9 9/56/9
f 10/59/4 49/60/4 31/61/4 63/62/4 2/51/4 20/17/4 23/16/4
f 9/63/3 24/12/3 14/15/3 6/38/3
f 8/64/3 12/65/3 24/12/3 9/63/3
f 12/65/3 7/66/3 18/13/3 24/12/3
f 17/67/10 57/68/10 39/69/10 71/70/10 25/5/10 12/11/10 8/71/10
f 102/72/11 56/73/11 25/5/11 71/70/11
f 101/74/12 52/75/12 15/9/12 72/8/12
f 16/24/13 26/1/13 15/4/13 52/76/13 34/77/13 66/78/13 3/25/13
f 1/32/14 48/79/14 30/80/14 62/81/14 19/82/14 26/1/14 16/24/14
f 19/82/1 5/83/1 18/2/1 26/1/1
f 100/84/11 73/85/11 40/7/11 58/6/11
f 99/86/15 74/87/15 41/88/15 75/89/15
f 98/90/16 66/91/16 34/92/16 76/93/16
f 97/94/11 77/95/11 39/69/11 57/68/11
f 96/96/15 78/97/15 42/98/15 79/99/15
f 95/100/15 70/101/15 38/102/15 80/103/15
f 94/104/6 81/105/6 27/53/6 45/52/6
f 93/106/6 82/107/6 43/108/6 83/109/6
f 92/110/6 67/111/6 35/112/6 84/113/6
f 91/114/6 85/115/6 32/55/6 50/54/6
f 90/116/6 86/117/6 44/118/6 87/119/6
f 89/120/6 62/121/6 30/122/6 88/123/6
f 86/117/6 89/120/6 88/123/6 44/118/6
f 37/46/6 69/45/6 89/120/6 86/117/6
f 69/45/17 19/44/17 62/121/17 89/120/17
f 67/111/6 90/116/6 87/119/6 35/112/6
f 21/39/6 55/47/6 90/116/6 67/111/6
f 55/47/6 37/46/6 86/117/6 90/116/6
f 53/35/6 91/114/6 50/54/6 11/36/6
f 35/112/6 87/119/6 91/114/6 53/35/6
f 87/119/6 44/118/6 85/115/6 91/114/6
f 82/107/6 92/110/6 84/113/6 43/108/6
f 36/41/6 68/40/6 92/110/6 82/107/6
f 68/40/6 21/39/6 67/111/6 92/110/6
f 49/124/6 93/106/6 83/109/6 31/125/6
f 10/43/6 54/42/6 93/106/6 49/124/6
f 54/42/6 36/41/6 82/107/6 93/106/6
f 63/126/6 94/104/6 45/52/6 2/51/6
f 31/125/6 83/109/6 94/104/6 63/126/6
f 83/109/6 43/108/6 81/105/6 94/104/6
f 78/97/15 95/100/15 80/103/15 42/98/15
f 28/49/18 60/48/18 95/100/18 78/97/18
f 60/48/18 13/29/18 70/101/18 95/100/18
f 47/127/19 96/96/19 79/99/19 29/128/19
f 4/18/20 46/50/20 96/96/20 47/127/20
f 46/50/18 28/49/18 78/97/18 96/96/18
f 61/129/21 97/94/21 57/68/21 17/67/21
f 29/128/22 79/99/22 97/94/22 61/129/22
f 79/99/23 42/98/23 77/95/23 97/94/23
f 74/87/15 98/90/15 76/93/15 41/88/15
f 33/27/24 65/26/24 98/90/24 74/87/24
f 65/26/25 3/25/25 66/91/25 98/90/25
f 70/101/15 99/86/15 75/89/15 38/102/15
f 13/29/18 51/28/18 99/86/18 70/101/18
f 51/28/18 33/27/18 74/87/18 99/86/18
f 56/73/11 100/84/11 58/6/11 25/5/11
f 38/102/23 75/89/23 100/84/23 56/73/23
f 75/89/23 41/88/23 73/85/23 100/84/23
f 73/85/26 101/74/26 72/8/26 40/7/26
f 41/88/27 76/93/27 101/74/27 73/85/27
f 76/93/28 34/92/28 52/75/28 101/74/28
f 77/95/11 102/72/11 71/70/11 39/69/11
f 42/98/23 80/103/23 102/72/23 77/95/23
f 80/103/23 38/102/23 56/73/23 102/72/23
f 81/105/6 103/34/6 59/37/6 27/53/6
f 43/108/6 84/113/6 103/34/6 81/105/6
f 84/113/6 35/112/6 53/35/6 103/34/6
f 85/115/6 104/30/6 64/33/6 32/55/6
f 44/118/6 88/123/6 104/30/6 85/115/6
f 88/123/6 30/122/6 48/31/6 104/30/6
